<svg width="459" height="396" viewBox="0 0 459 396" fill="none" xmlns="http://www.w3.org/2000/svg">
<path d="M459 228.749C459 353.487 346.529 370.404 231.252 370.404C115.975 370.404 0 353.487 0 228.749C0 104.012 121.481 0 236.758 0C352.035 0 459 104.012 459 228.749Z" fill="url(#paint0_radial)"/>
<path d="M75.5825 321.35C86.9049 321.35 62.0677 301.103 47.0513 314.117C32.0348 327.131 25.5279 331.862 19.5215 339.87C13.515 347.879 5.41034 369.074 10.5115 371.905C15.6126 374.736 35.0382 364.898 50.555 369.67C66.0719 374.442 71.7516 380.086 115.626 380.086C159.5 380.086 177.644 374.878 215.857 369.67C254.071 364.462 297.237 374.878 312.098 375.456C326.958 376.035 374.89 364.898 393.478 361.568C412.065 358.239 437.873 316.628 407.444 329.359C377.015 342.09 363.568 341.314 353.661 341.314C343.754 341.314 356.889 319.903 374.89 319.903C383.78 310.481 350.122 300.228 329.6 314.117C298.464 339 191.797 339.579 184.721 335.528C177.644 331.477 188.259 324.533 193.92 323.375C199.582 322.218 188.259 308.909 165.614 318.746C136.601 334.949 77.6017 338.681 65.5716 336.367C53.5415 334.052 64.2601 321.35 75.5825 321.35Z" fill="#4AA9ED" stroke="#2B679E" stroke-width="3"/>
<path d="M98.6074 287.313V254.778L131.643 254.277L131.143 287.313H98.6074Z" fill="#E6DE9D" stroke="#481E1E" stroke-width="2"/>
<path d="M98.6074 262.286H131.143" stroke="#57302B" stroke-width="2"/>
<path d="M98.6074 271.295H131.143" stroke="#57302B" stroke-width="2"/>
<path d="M98.6074 279.304H131.143" stroke="#57302B" stroke-width="2"/>
<path d="M98.6074 262.286H131.143" stroke="#481E1E" stroke-width="2"/>
<path d="M124.636 254.277L98.6074 279.805V287.313H103.613L131.643 259.783V254.277H124.636Z" fill="#E6DE9D" stroke="#481E1E" stroke-width="2"/>
<path d="M90.0984 254.778V246.769L140.153 246.268V254.277L90.0984 254.778Z" fill="#E6DE9D" stroke="#481E1E" stroke-width="2"/>
<path d="M98.6072 255.278H91.5996V287.313H98.6072V255.278Z" fill="#E6DE9D" stroke="#481E1E" stroke-width="2"/>
<path d="M90.098 294.321V287.313H140.153V293.32L90.098 294.321Z" fill="#E6DE9D" stroke="#481E1E" stroke-width="2"/>
<path d="M138.651 255.278V287.313H130.642L131.087 255.278H138.651Z" fill="#E6DE9D" stroke="#481E1E" stroke-width="2"/>
<path d="M107.665 280.557C107.315 280.9 107.018 281.136 106.772 281.266C106.527 281.396 106.297 281.441 106.083 281.403C105.885 281.368 105.688 281.27 105.492 281.11C105.295 280.95 105.022 280.692 104.673 280.335L102.839 278.466L103.839 277.486L105.868 279.555C105.989 279.678 106.108 279.793 106.226 279.9C106.321 279.983 106.4 280.033 106.462 280.05C106.525 280.067 106.589 280.053 106.656 280.008C106.719 279.972 106.805 279.9 106.915 279.792L107.03 279.68C107.057 279.653 107.083 279.621 107.11 279.581L107.865 280.351C107.845 280.377 107.813 280.411 107.77 280.454L107.665 280.557ZM104.668 276.672L105.668 275.692L107.501 277.561C107.821 277.887 108.056 278.14 108.206 278.32C108.356 278.499 108.457 278.675 108.508 278.847C108.569 279.043 108.565 279.242 108.498 279.446C108.43 279.65 108.285 279.88 108.065 280.135L104.668 276.672ZM106.442 275.207L106.304 275.067L107.304 274.087L112.463 275.488L112.605 275.632L111.611 276.608L106.442 275.207ZM109.514 274.38L108.283 273.126L109.233 272.194L112.056 275.073L109.514 274.38ZM106.848 275.622L109.391 276.314L110.626 277.574L109.677 278.505L106.848 275.622ZM109.881 271.558L110.881 270.578L114.253 274.016L113.254 274.996L109.881 271.558ZM112.664 271.976L112.784 271.858C112.891 271.754 112.966 271.674 113.009 271.618C113.053 271.556 113.075 271.495 113.075 271.435C113.079 271.379 113.06 271.323 113.018 271.267C112.975 271.203 112.903 271.12 112.802 271.017C112.701 270.914 112.621 270.842 112.562 270.802C112.503 270.755 112.444 270.731 112.384 270.731C112.328 270.734 112.27 270.758 112.21 270.803C112.147 270.846 112.064 270.917 111.961 271.019L111.841 271.136L111.091 270.372L111.505 269.965C111.752 269.723 111.976 269.552 112.179 269.452C112.381 269.345 112.571 269.302 112.749 269.324C112.917 269.342 113.085 269.409 113.252 269.526C113.416 269.64 113.604 269.805 113.817 270.022C114.019 270.228 114.174 270.413 114.281 270.576C114.392 270.735 114.457 270.898 114.475 271.063C114.496 271.251 114.456 271.45 114.355 271.661C114.254 271.864 114.079 272.089 113.829 272.334L113.414 272.74L112.664 271.976ZM113.706 267.806L113.791 267.723L115.529 268.705L116.984 271.337L115.984 272.318L113.706 267.806ZM117.605 269.532L116.77 270.35L116.225 269.375L116.625 268.983L114.016 267.502L114.93 266.605L119.397 268.97L118.378 269.97L117.605 269.532ZM117.462 264.053C117.486 264.024 117.526 263.981 117.582 263.926L117.712 263.798C117.935 263.579 118.17 263.382 118.416 263.206C118.542 263.115 118.643 263.048 118.72 263.006L119.421 263.72C119.367 263.766 119.276 263.84 119.146 263.941C118.973 264.078 118.829 264.203 118.712 264.318C118.582 264.445 118.482 264.553 118.412 264.641C118.342 264.723 118.292 264.799 118.261 264.868L117.462 264.053ZM121.163 267.316C120.83 267.643 120.537 267.874 120.285 268.011C120.033 268.14 119.79 268.186 119.556 268.147C119.332 268.112 119.097 268.006 118.851 267.828C118.606 267.645 118.306 267.373 117.953 267.013C117.643 266.696 117.403 266.429 117.234 266.209C117.067 265.986 116.952 265.776 116.888 265.577C116.824 265.372 116.823 265.167 116.884 264.963C116.946 264.753 117.075 264.525 117.272 264.279L118.973 266.013C119.156 266.2 119.336 266.376 119.512 266.543C119.65 266.67 119.773 266.745 119.881 266.769C119.993 266.79 120.106 266.761 120.219 266.683C120.332 266.612 120.48 266.486 120.663 266.306C120.853 266.12 121.006 265.953 121.123 265.806C121.173 265.75 121.23 265.678 121.294 265.59L122.004 266.314C121.877 266.511 121.717 266.717 121.523 266.933C121.42 267.055 121.3 267.182 121.163 267.316ZM119.197 262.42L120.197 261.439L123.569 264.877L122.57 265.858L119.197 262.42ZM122.598 263.467L121.544 262.393L121.196 260.459L122.286 259.39L122.689 262.171L125.673 262.814L124.554 263.912L122.598 263.467Z" fill="#350A0A"/>
<path d="M125.136 239.26V206.725L158.172 206.224L157.672 239.26H125.136Z" fill="#E6DE9D" stroke="#481E1E" stroke-width="2"/>
<path d="M125.136 214.233H157.672" stroke="#57302B" stroke-width="2"/>
<path d="M125.136 223.243H157.672" stroke="#57302B" stroke-width="2"/>
<path d="M125.136 231.252H157.672" stroke="#57302B" stroke-width="2"/>
<path d="M125.136 214.233H157.672" stroke="#481E1E" stroke-width="2"/>
<path d="M151.165 206.224L125.136 231.752V239.26H130.142L158.172 211.73V206.224H151.165Z" fill="#E6DE9D" stroke="#481E1E" stroke-width="2"/>
<path d="M116.627 206.725V198.717L166.682 198.216V206.225L116.627 206.725Z" fill="#E6DE9D" stroke="#481E1E" stroke-width="2"/>
<path d="M125.137 207.226H117.628V239.261H125.137V207.226Z" fill="#E6DE9D" stroke="#481E1E" stroke-width="2"/>
<path d="M116.627 245.768V239.261H166.682V245.768H116.627Z" fill="#E6DE9D" stroke="#481E1E" stroke-width="2"/>
<path d="M165.68 206.725V239.261H157.672L158.172 206.725L165.68 206.725Z" fill="#E6DE9D" stroke="#481E1E" stroke-width="2"/>
<path d="M132.872 227.692L133.857 226.697L137.279 230.086L136.294 231.08L132.872 227.692ZM136.877 227.855L136.168 228.571L135.372 227.783L136.081 227.067L134.773 225.772L135.758 224.777L139.18 228.166L138.195 229.161L136.877 227.855ZM137.166 223.355L137.25 223.271L139.002 224.228L140.495 226.839L139.509 227.833L137.166 223.355ZM141.09 225.024L140.267 225.855L139.708 224.887L140.102 224.489L137.472 223.047L138.373 222.137L142.874 224.436L141.869 225.451L141.09 225.024ZM140.868 219.548C140.891 219.518 140.93 219.475 140.986 219.419L141.114 219.29C141.334 219.067 141.566 218.867 141.809 218.687C141.934 218.594 142.034 218.526 142.11 218.483L142.821 219.187C142.769 219.234 142.678 219.308 142.55 219.411C142.379 219.551 142.236 219.679 142.121 219.795C141.993 219.924 141.895 220.033 141.826 220.123C141.757 220.206 141.708 220.282 141.678 220.351L140.868 219.548ZM144.615 222.757C144.287 223.089 143.998 223.325 143.748 223.464C143.498 223.598 143.255 223.647 143.021 223.611C142.796 223.58 142.56 223.477 142.311 223.303C142.063 223.123 141.76 222.855 141.402 222.501C141.087 222.189 140.843 221.924 140.67 221.707C140.501 221.487 140.383 221.278 140.316 221.08C140.249 220.876 140.245 220.672 140.303 220.467C140.361 220.255 140.487 220.025 140.681 219.777L142.407 221.486C142.592 221.67 142.775 221.844 142.954 222.008C143.093 222.133 143.217 222.206 143.326 222.229C143.438 222.248 143.55 222.218 143.662 222.138C143.774 222.065 143.92 221.937 144.101 221.755C144.288 221.566 144.439 221.397 144.554 221.248C144.603 221.192 144.659 221.119 144.721 221.029L145.442 221.744C145.318 221.942 145.16 222.151 144.97 222.369C144.868 222.492 144.75 222.621 144.615 222.757ZM142.579 217.89L143.564 216.895L146.986 220.284L146.001 221.279L142.579 217.89ZM145.994 218.888L144.925 217.829L144.549 215.9L145.623 214.816L146.067 217.591L149.06 218.19L147.956 219.304L145.994 218.888Z" fill="#350A0A"/>
<path d="M154.168 287.313V254.778L187.204 254.277L186.704 287.313H154.168Z" fill="#E6DE9D" stroke="#481E1E" stroke-width="2"/>
<path d="M154.168 262.286H186.704" stroke="#57302B" stroke-width="2"/>
<path d="M154.168 271.295H186.704" stroke="#57302B" stroke-width="2"/>
<path d="M154.168 279.304H186.704" stroke="#57302B" stroke-width="2"/>
<path d="M154.168 262.286H186.704" stroke="#481E1E" stroke-width="2"/>
<path d="M187.207 280.3L161.67 254.28L154.162 254.283L154.164 259.288L181.703 287.31L187.209 287.308L187.207 280.3Z" fill="#E6DE9D" stroke="#481E1E" stroke-width="2"/>
<path d="M145.658 254.778V246.769L195.713 246.268V254.277L145.658 254.778Z" fill="#E6DE9D" stroke="#481E1E" stroke-width="2"/>
<path d="M154.669 255.278H146.66V287.313H154.669V255.278Z" fill="#E6DE9D" stroke="#481E1E" stroke-width="2"/>
<path d="M145.658 294.321V287.313H195.713V293.32L145.658 294.321Z" fill="#E6DE9D" stroke="#481E1E" stroke-width="2"/>
<path d="M194.211 254.777V287.313H186.703L187.204 254.777H194.211Z" fill="#E6DE9D" stroke="#481E1E" stroke-width="2"/>
<path d="M167.024 262.866L168.014 263.856L164.608 267.261L163.618 266.271L167.024 262.866ZM166.633 265.653L166.751 265.772C166.857 265.877 166.938 265.951 166.994 265.994C167.057 266.037 167.118 266.059 167.177 266.059C167.233 266.062 167.289 266.042 167.345 265.999C167.408 265.956 167.491 265.884 167.593 265.781C167.695 265.679 167.766 265.598 167.806 265.539C167.852 265.48 167.875 265.42 167.875 265.361C167.872 265.305 167.847 265.247 167.801 265.187C167.758 265.125 167.685 265.042 167.583 264.94L167.464 264.821L168.221 264.064L168.632 264.475C168.876 264.719 169.05 264.942 169.152 265.143C169.261 265.344 169.305 265.534 169.286 265.712C169.269 265.88 169.203 266.049 169.088 266.217C168.975 266.382 168.812 266.572 168.598 266.786C168.393 266.991 168.21 267.148 168.048 267.256C167.89 267.369 167.728 267.435 167.563 267.454C167.375 267.478 167.175 267.44 166.964 267.341C166.76 267.242 166.534 267.068 166.286 266.821L165.875 266.41L166.633 265.653ZM170.812 266.654L170.896 266.739L169.931 268.486L167.313 269.966L166.323 268.976L170.812 266.654ZM169.124 270.57L168.298 269.743L169.268 269.189L169.664 269.585L171.119 266.961L172.025 267.867L169.703 272.357L168.694 271.347L169.124 270.57ZM174.601 270.374C174.631 270.397 174.674 270.437 174.73 270.493L174.859 270.622C175.08 270.843 175.279 271.076 175.457 271.32C175.55 271.445 175.618 271.546 175.66 271.622L174.953 272.329C174.906 272.277 174.832 272.186 174.73 272.057C174.591 271.886 174.464 271.742 174.349 271.627C174.22 271.498 174.111 271.399 174.022 271.33C173.94 271.26 173.864 271.211 173.794 271.181L174.601 270.374ZM171.374 274.106C171.044 273.776 170.81 273.486 170.671 273.235C170.539 272.984 170.491 272.742 170.528 272.508C170.561 272.283 170.664 272.047 170.839 271.8C171.021 271.552 171.29 271.25 171.646 270.894C171.96 270.581 172.225 270.338 172.443 270.166C172.664 269.998 172.874 269.881 173.072 269.815C173.276 269.749 173.481 269.746 173.685 269.805C173.897 269.864 174.126 269.992 174.374 270.186L172.656 271.904C172.471 272.089 172.296 272.27 172.131 272.448C172.006 272.587 171.932 272.711 171.909 272.819C171.889 272.932 171.918 273.044 171.998 273.156C172.07 273.268 172.197 273.415 172.379 273.597C172.567 273.785 172.735 273.936 172.884 274.052C172.94 274.101 173.012 274.158 173.101 274.22L172.384 274.938C172.186 274.813 171.978 274.654 171.76 274.463C171.638 274.361 171.509 274.242 171.374 274.106ZM176.251 272.094L177.241 273.084L173.836 276.489L172.846 275.499L176.251 272.094ZM175.237 275.504L176.301 274.44L178.231 274.074L179.31 275.153L176.533 275.583L175.92 278.573L174.811 277.464L175.237 275.504Z" fill="#350A0A"/>
<path d="M332.862 268.793L235.946 288.838C235.946 288.838 258.485 242.157 259.179 187.685C259.872 133.213 247.52 91.1496 247.52 91.1496C247.52 91.1496 286.78 108.371 312.461 159.497C338.143 210.623 332.862 268.793 332.862 268.793Z" fill="#EFE4A8" stroke="#D7C28D" stroke-width="3"/>
<path d="M238.619 88.3928L221.462 294.974L229.948 294.338L246.643 88.2939C246.643 88.2939 246.918 85.2616 242.888 85.0615C238.857 84.8614 238.619 88.3928 238.619 88.3928Z" fill="#98614A" stroke="#7A503F" stroke-width="3"/>
<path d="M308.643 345.008C280.419 369.188 218.845 372.387 218.845 372.387C218.845 372.387 157.783 375.491 115.62 363.432C73.458 351.372 66.3498 305.9 66.3498 305.9L207.469 295.032L345.422 274.343C345.422 274.343 336.867 320.828 308.643 345.008Z" fill="#A7715A" stroke="#7A503F" stroke-width="3"/>
<path d="M206.037 288.376C124.496 295.872 59.3778 295.363 56.6567 296.015C55.1174 296.384 53.4483 298.249 53.7306 300.786C54.0129 303.322 55.4571 304.051 56.4197 304.536L56.4198 304.536C58.8267 305.75 135.816 304.39 222.603 294.335C309.39 284.28 350.668 271.783 350.668 271.783C350.668 271.783 353.335 270.005 352.142 266.385C350.948 262.764 347.328 263.957 347.328 263.957C347.328 263.957 287.578 280.88 206.037 288.376Z" fill="#98614A" stroke="#7A503F" stroke-width="3"/>
<path d="M156.169 336.507C164.178 336.507 149.662 318.347 131.142 328.499C131.142 328.499 92.6001 350.882 76.5826 355.887C60.5652 360.893 35.0374 360.557 30.032 372.405C25.0265 384.254 46.55 383.417 46.55 383.417C46.55 383.417 89.5969 378.913 115.343 385.561L116.022 385.736C141.215 392.242 148.295 394.07 163.396 394.07C178.631 394.07 207.444 381.056 234.473 376.551C261.502 372.046 292.036 381.056 302.547 381.556C313.059 382.057 350.099 376.551 360.11 369.543C370.121 362.535 374.125 337.509 352.602 348.52C331.078 359.532 303.548 352.024 296.541 352.024C289.533 352.024 298.824 333.504 311.557 333.504C317.845 325.354 294.038 316.485 279.522 328.499C257.498 350.022 217.455 350.523 212.449 347.019C207.444 343.515 214.952 337.509 218.956 336.507C222.961 335.506 214.952 323.994 198.934 332.503C178.412 346.518 152.165 357.89 143.655 355.887C135.146 353.885 148.16 336.507 156.169 336.507Z" fill="#6CC1FF" stroke="#2B679E" stroke-width="3"/>
<defs>
<radialGradient id="paint0_radial" cx="0" cy="0" r="1" gradientUnits="userSpaceOnUse" gradientTransform="translate(230.251 225.245) rotate(-91.8596) scale(231.374 240.874)">
<stop offset="0.078125" stop-color="#DB5454"/>
<stop offset="0.463542" stop-color="#EB865B"/>
<stop offset="0.84613" stop-color="#FFE141" stop-opacity="0.8"/>
<stop offset="0.959723" stop-color="#FFE55E" stop-opacity="0"/>
</radialGradient>
</defs>
</svg>
