<svg width="152" height="145" viewBox="0 0 152 145" fill="none" xmlns="http://www.w3.org/2000/svg">
<path d="M26.9915 122.995V26.4604L125.011 24.9753L123.526 122.995H26.9915Z" fill="#E6DE9D" stroke="#481E1E" stroke-width="2"/>
<path d="M26.9915 48.7365H123.526" stroke="#57302B" stroke-width="2"/>
<path d="M26.9915 75.4693H123.526" stroke="#57302B" stroke-width="2"/>
<path d="M26.9915 99.2316H123.526" stroke="#57302B" stroke-width="2"/>
<path d="M26.9915 48.7365H123.526" stroke="#481E1E" stroke-width="2"/>
<path d="M125.02 102.186L49.2511 24.9843L26.9739 24.9918L26.9789 39.8433L108.69 122.984L125.027 122.978L125.02 102.186Z" fill="#E6DE9D" stroke="#481E1E" stroke-width="2"/>
<path d="M1.5 26.5001V2.00006L150.257 1.21271V24.9751L1.5 26.5001Z" fill="#E6DE9D" stroke="#481E1E" stroke-width="2"/>
<path d="M28.4765 27.9445H4.71411V122.994H28.4765V27.9445Z" fill="#E6DE9D" stroke="#481E1E" stroke-width="2"/>
<path d="M1.74258 143.787V122.995H150.257V140.817L1.74258 143.787Z" fill="#E6DE9D" stroke="#481E1E" stroke-width="2"/>
<path d="M145.802 26.459V122.994H123.524L125.01 26.459H145.802Z" fill="#E6DE9D" stroke="#481E1E" stroke-width="2"/>
<path d="M68.9053 50.3382C69.0235 50.4313 69.1942 50.5908 69.4172 50.8165L69.9289 51.3343C70.808 52.2238 71.6011 53.1591 72.308 54.1401C72.6747 54.6438 72.9429 55.048 73.1126 55.3526L70.2647 58.167C70.0811 57.9548 69.7863 57.59 69.3802 57.0728C68.8299 56.3832 68.3251 55.806 67.8659 55.3413C67.3542 54.8235 66.9209 54.425 66.5662 54.1457C66.2379 53.8665 65.9355 53.6668 65.659 53.5463L68.9053 50.3382ZM55.9082 65.19C54.5961 63.8623 53.6658 62.6952 53.1174 61.6888C52.5954 60.6826 52.4097 59.7113 52.5605 58.775C52.6978 57.8783 53.1191 56.937 53.8245 55.9512C54.5564 54.9656 55.6392 53.7642 57.0732 52.3472C58.3345 51.1007 59.4028 50.1368 60.278 49.4556C61.1663 48.7877 62.0072 48.3241 62.8007 48.0648C63.6206 47.8057 64.439 47.7973 65.256 48.0397C66.0993 48.2823 67.0137 48.7959 67.999 49.5805L61.0882 56.41C60.3447 57.1448 59.6408 57.8666 58.9766 58.5754C58.4718 59.1268 58.1719 59.62 58.0769 60.055C57.9951 60.5033 58.1112 60.9528 58.4253 61.4035C58.713 61.8539 59.2177 62.4443 59.9394 63.1746C60.6873 63.9314 61.3568 64.5425 61.9481 65.008C62.1713 65.2073 62.4603 65.4334 62.8152 65.6863L59.9274 68.5401C59.1385 68.0339 58.3107 67.3954 57.4441 66.6247C56.9581 66.2126 56.4462 65.7344 55.9082 65.19ZM75.4646 57.2546L79.4009 61.2377L65.6988 74.7786L61.7625 70.7954L75.4646 57.2546ZM71.973 71.8062L71.1858 71.0096L74.2329 67.9983L74.902 68.6754C75.3088 69.087 75.6304 69.3859 75.8669 69.5721C76.1167 69.7452 76.3471 69.8456 76.5581 69.8732C76.756 69.8876 76.9676 69.8228 77.1928 69.679C77.4181 69.5351 77.7099 69.286 78.0684 68.9318C78.4269 68.5775 78.6794 68.2886 78.8259 68.0651C78.9857 67.8284 79.0596 67.6111 79.0476 67.413C79.0356 67.215 78.9378 66.9966 78.7545 66.7579C78.5842 66.5325 78.2826 66.2007 77.8496 65.7626L77.1804 65.0854L80.2275 62.0742L82.2547 64.1255C83.1863 65.0682 83.8478 65.9235 84.2393 66.6914C84.6307 67.4593 84.7914 68.1928 84.7212 68.892C84.6514 69.5383 84.3969 70.1704 83.9576 70.7882C83.5315 71.4192 82.9002 72.1481 82.0638 72.9747C80.9883 74.0375 80.0601 74.758 79.2791 75.1361C78.26 75.5921 77.2501 75.6191 76.2493 75.2172L73.1778 82.3466L69.0447 78.1643L71.973 71.8062ZM80.2382 89.8097C78.0339 87.5791 76.8373 85.6911 76.6484 84.1457C76.5603 83.4192 76.6567 82.7466 76.9376 82.1278C77.2317 81.496 77.6974 80.8652 78.3347 80.2354C79.3969 79.1857 80.3902 78.624 81.3146 78.5503C82.1068 78.5022 83.029 78.8112 84.081 79.4774L84.1607 79.3987C83.5463 78.3787 83.2945 77.4334 83.4053 76.5629C83.5291 75.7057 84.0757 74.7981 85.0449 73.8403C86.1337 72.7644 87.2322 72.2561 88.3406 72.3155C89.5942 72.3889 91.009 73.0902 92.5851 74.4195L88.4226 78.5329C88.0907 78.861 87.8516 79.1235 87.7052 79.3207C87.5852 79.5179 87.5445 79.7157 87.5829 79.9139C87.6082 80.0989 87.6993 80.3106 87.8563 80.5491C88.0266 80.7745 88.302 81.0797 88.6825 81.4648C89.063 81.8498 89.3649 82.1288 89.5883 82.3017C89.8249 82.4615 90.0421 82.5618 90.2399 82.6026C90.4245 82.63 90.6096 82.5783 90.7952 82.4474C91.0072 82.3167 91.2791 82.0873 91.611 81.7593C91.9297 81.4444 92.1556 81.1817 92.2889 80.9713C92.4352 80.7742 92.5024 80.5766 92.4904 80.3785C92.4784 80.1805 92.3872 79.9687 92.217 79.7433C92.0467 79.5179 91.7648 79.2061 91.3711 78.8078L90.9578 78.3895C90.8528 78.2833 90.7215 78.177 90.5637 78.0704L93.4714 75.1969C93.5634 75.2635 93.6947 75.383 93.8653 75.5556L94.2589 75.954C96.3583 78.0783 97.529 79.8738 97.7711 81.3404C97.8856 82.067 97.8156 82.7398 97.5612 83.3587C97.32 83.9644 96.8874 84.5756 96.2634 85.1923C95.2941 86.1501 94.3736 86.6793 93.5019 86.7797C92.6432 86.8934 91.7076 86.6371 90.6949 86.0107L90.6152 86.0895C91.269 87.1493 91.5671 88.075 91.5096 88.8667C91.4249 89.7901 90.8515 90.7767 89.7893 91.8264C89.245 92.3643 88.6947 92.7769 88.1387 93.064C87.609 93.3512 87.0471 93.4997 86.4531 93.5094C85.1594 93.5281 83.6851 92.8462 82.0301 91.4637L86.2324 87.3109C86.5643 86.9828 86.797 86.7004 86.9304 86.4636C87.077 86.2137 87.1378 85.9831 87.1126 85.7717C87.0875 85.5604 86.9832 85.3354 86.7999 85.0967C86.6296 84.8713 86.3476 84.5594 85.954 84.1611C85.5604 83.7628 85.2453 83.4706 85.0088 83.2844C84.7855 83.1115 84.5683 83.0112 84.3572 82.9835C84.1462 82.9559 83.9149 83.0139 83.6632 83.1576C83.4249 83.2882 83.1397 83.5175 82.8078 83.8455C82.4891 84.1604 82.2566 84.4296 82.11 84.6532C81.9899 84.8768 81.949 85.101 81.9873 85.3256C82.0124 85.537 82.11 85.7685 82.2801 86.0203C82.4635 86.259 82.7455 86.5709 83.126 86.9559L83.618 87.4538C83.723 87.56 83.8675 87.6797 84.0515 87.8127L81.1438 90.6862C81.0386 90.6064 80.8877 90.4669 80.6909 90.2678L80.2382 89.8097Z" fill="#350A0A"/>
</svg>
